<?xml version="1.0" standalone="no"?><!DOCTYPE svg PUBLIC "-//W3C//DTD SVG 1.1//EN" "http://www.w3.org/Graphics/SVG/1.1/DTD/svg11.dtd"><svg t="1615515772947" class="icon" viewBox="0 0 1024 1024" version="1.1" xmlns="http://www.w3.org/2000/svg" p-id="1202" xmlns:xlink="http://www.w3.org/1999/xlink" width="200" height="200"><defs><style type="text/css"></style></defs><path d="M933.12 148.906667L567.893333 802.133333a256 256 0 0 0-323.413333-356.266666l630.613333-354.986667a42.666667 42.666667 0 0 1 51.2 6.826667 42.666667 42.666667 0 0 1 6.826667 51.2z" fill="#F8D800" p-id="1203"></path><path d="M597.333333 682.666667a256 256 0 0 1-29.44 119.466666 10.666667 10.666667 0 0 0 0 2.986667 256 256 0 1 1-381.866666-324.266667 32.853333 32.853333 0 0 1 8.106666-5.973333 231.253333 231.253333 0 0 1 52.053334-29.013333A253.013333 253.013333 0 0 1 341.333333 426.666667a256 256 0 0 1 256 256z" fill="#FE9517" p-id="1204"></path><path d="M341.333333 682.666667m-85.333333 0a85.333333 85.333333 0 1 0 170.666667 0 85.333333 85.333333 0 1 0-170.666667 0Z" fill="#FE6017" p-id="1205"></path></svg>