<?xml version="1.0" encoding="utf-8"?>
<!-- Generator: Adobe Illustrator 16.0.0, SVG Export Plug-In . SVG Version: 6.00 Build 0)  -->
<!DOCTYPE svg PUBLIC "-//W3C//DTD SVG 1.1//EN" "http://www.w3.org/Graphics/SVG/1.1/DTD/svg11.dtd">
<svg version="1.1" id="Constellations" xmlns="http://www.w3.org/2000/svg" xmlns:xlink="http://www.w3.org/1999/xlink" x="0px"
	 y="0px" width="512px" height="512px" viewBox="0 0 512 512" enable-background="new 0 0 512 512" xml:space="preserve">
<circle id="Background" fill="#323653" cx="256" cy="256" r="255.931"/>
<path id="Shadow" opacity="0.1" d="M365.406,138.295l-28.824,7.615l-76.477,110.089L85.403,196.872L207.18,318.649l-61.919,71.319
	l120.648,121.819c103.037-4.012,197.7-70.493,232.606-174.016c6.074-18.016,10.011-36.234,11.98-54.387L365.406,138.295z"/>
<g id="Constellations_1_">
	<g>
		<polygon fill="#F2F2F2" points="265.102,463.496 141.387,390.587 256.461,259.899 85.625,203.007 87.204,198.264 265.198,257.541 
			149.135,389.351 265.416,457.879 397.499,347.643 264.446,256.375 337.095,143.717 341.295,146.426 271.288,254.989 
			407.506,347.814 		"/>
	</g>
	<g>
		<path fill="#F07DB0" d="M351.434,141.116c1.936,7.238-1.983,14.875-8.738,17.065c-6.764,2.184-13.808-1.918-15.74-9.159
			c-1.931-7.241,1.982-14.885,8.732-17.061C342.451,129.777,349.5,133.879,351.434,141.116z"/>
		<polygon fill="#F07DB0" points="330.982,114.308 336.582,145.91 347.409,175.828 341.806,144.225 		"/>
		<polygon fill="#F07DB0" points="310.474,154.344 339.936,147.872 367.905,135.795 338.442,142.274 		"/>
	</g>
	<g>
		<path fill="#4EB5A0" d="M279.436,456.954c1.834,6.844-1.874,14.054-8.252,16.121c-6.389,2.07-13.051-1.801-14.879-8.649
			c-1.829-6.844,1.874-14.064,8.257-16.127C270.951,446.229,277.612,450.108,279.436,456.954z"/>
		<polygon fill="#4EB5A0" points="260.104,431.625 265.401,461.489 275.631,489.758 270.343,459.894 		"/>
		<polygon fill="#4EB5A0" points="240.731,469.458 268.582,463.329 295.008,451.928 267.163,458.045 		"/>
	</g>
	<g>
		<path fill="#F07DB0" d="M411.477,342.449c1.711,6.387-1.75,13.114-7.701,15.044c-5.963,1.932-12.18-1.681-13.887-8.072
			c-1.707-6.386,1.749-13.125,7.707-15.049C403.558,332.44,409.774,336.061,411.477,342.449z"/>
		<polygon fill="#F07DB0" points="393.435,318.812 398.379,346.682 407.925,373.062 402.99,345.191 		"/>
		<polygon fill="#F07DB0" points="375.356,354.117 401.348,348.398 426.009,337.759 400.022,343.467 		"/>
	</g>
	<g>
		<path fill="#F9EE50" d="M94.144,196.095c1.306,4.874-1.334,10.009-5.877,11.481c-4.55,1.475-9.295-1.282-10.597-6.16
			c-1.302-4.874,1.334-10.017,5.881-11.485C88.101,188.457,92.845,191.219,94.144,196.095z"/>
		<polygon fill="#F9EE50" points="80.375,178.056 84.149,199.325 91.434,219.458 87.668,198.188 		"/>
		<polygon fill="#F9EE50" points="66.579,205 86.414,200.636 105.234,192.516 85.403,196.872 		"/>
	</g>
	<g id="Star_1_">
		<path fill="#29ABE2" d="M154.194,384.719c1.5,5.626-1.54,11.565-6.792,13.262c-5.251,1.697-10.731-1.49-12.231-7.113
			c-1.503-5.632,1.54-11.57,6.789-13.265C147.214,375.905,152.691,379.092,154.194,384.719z"/>
		<polygon fill="#29ABE2" points="138.3,363.887 142.65,388.449 151.062,411.698 146.712,387.135 		"/>
		<polygon fill="#29ABE2" points="122.36,394.996 145.261,389.969 167,380.583 144.099,385.618 		"/>
	</g>
	<g id="Star_11_">
		<path fill="#4EB5A0" d="M272.004,252.155c1.878,7.037-1.926,14.467-8.495,16.589c-6.569,2.125-13.423-1.862-15.3-8.899
			c-1.881-7.043,1.926-14.473,8.493-16.592C263.273,241.13,270.124,245.115,272.004,252.155z"/>
		<polygon fill="#4EB5A0" points="252.122,226.096 257.564,256.823 268.087,285.904 262.645,255.178 		"/>
		<polygon fill="#4EB5A0" points="232.183,265.014 260.83,258.72 288.023,246.981 259.377,253.279 		"/>
	</g>
</g>
</svg>
