<?xml version="1.0" encoding="utf-8"?>
<!-- Generator: Adobe Illustrator 16.0.0, SVG Export Plug-In . SVG Version: 6.00 Build 0)  -->
<!DOCTYPE svg PUBLIC "-//W3C//DTD SVG 1.1//EN" "http://www.w3.org/Graphics/SVG/1.1/DTD/svg11.dtd">
<svg version="1.1" id="Jupiter" xmlns="http://www.w3.org/2000/svg" xmlns:xlink="http://www.w3.org/1999/xlink" x="0px" y="0px"
	 width="512px" height="512px" viewBox="0 0 512 512" enable-background="new 0 0 512 512" xml:space="preserve">
<circle id="Background" fill="#323653" cx="256" cy="256" r="255.943"/>
<g id="Stars_8_">
	<g>
		<path fill="#FFFFFF" d="M169.771,141.595c0.789,0.742,0.888,1.979,0.225,2.764c-0.665,0.784-1.844,0.816-2.633,0.072
			c-0.789-0.745-0.89-1.981-0.226-2.762C167.803,140.885,168.982,140.853,169.771,141.595z"/>
		<polygon fill="#FFFFFF" points="165.214,139.856 168.309,143.317 171.919,146.169 168.824,142.711 		"/>
		<polygon fill="#FFFFFF" points="165.741,146.341 168.871,143.301 171.391,139.686 168.261,142.727 		"/>
	</g>
	<g>
		<path fill="#FFFFFF" d="M294.139,314.959c1.578,1.484,1.777,3.959,0.451,5.526c-1.332,1.568-3.688,1.633-5.269,0.145
			c-1.577-1.487-1.776-3.96-0.45-5.522C290.204,313.538,292.562,313.474,294.139,314.959z"/>
		<polygon fill="#FFFFFF" points="285.025,311.481 291.216,318.402 298.435,324.107 292.245,317.189 		"/>
		<polygon fill="#FFFFFF" points="286.08,324.449 292.337,318.369 297.379,311.14 291.118,317.223 		"/>
	</g>
	<g>
		<path fill="#FFFFFF" d="M329.458,24c0.972,0.915,1.095,2.438,0.277,3.404c-0.819,0.964-2.27,1.004-3.242,0.088
			c-0.972-0.916-1.095-2.439-0.278-3.4C327.036,23.125,328.487,23.085,329.458,24z"/>
		<polygon fill="#FFFFFF" points="323.847,21.859 327.658,26.121 332.104,29.633 328.292,25.374 		"/>
		<polygon fill="#FFFFFF" points="324.496,29.844 328.35,26.1 331.454,21.648 327.599,25.394 		"/>
	</g>
	<g>
		<path fill="#FFFFFF" d="M96.733,95.416c0.789,0.743,0.889,1.979,0.225,2.764c-0.665,0.784-1.844,0.816-2.633,0.073
			c-0.789-0.745-0.89-1.981-0.226-2.762C94.765,94.706,95.944,94.674,96.733,95.416z"/>
		<polygon fill="#FFFFFF" points="92.176,93.678 95.271,97.138 98.881,99.99 95.786,96.532 		"/>
		<polygon fill="#FFFFFF" points="92.703,100.162 95.832,97.122 98.353,93.507 95.223,96.548 		"/>
	</g>
	<g>
		<path fill="#FFFFFF" d="M26.305,225.242c0.79,0.742,0.889,1.979,0.226,2.764c-0.665,0.784-1.844,0.816-2.634,0.073
			c-0.788-0.745-0.889-1.981-0.226-2.762C24.338,224.531,25.517,224.5,26.305,225.242z"/>
		<polygon fill="#FFFFFF" points="21.749,223.504 24.844,226.964 28.454,229.816 25.358,226.358 		"/>
		<polygon fill="#FFFFFF" points="22.276,229.988 25.405,226.947 27.926,223.333 24.795,226.374 		"/>
	</g>
	<g>
		<path fill="#E2DDEE" d="M378.668,461.807c2.225,2.093,2.504,5.585,0.641,7.79c-1.884,2.212-5.201,2.309-7.434,0.208
			c-2.225-2.094-2.511-5.589-0.637-7.803C373.113,459.797,376.446,459.71,378.668,461.807z"/>
		<polygon fill="#E2DDEE" points="365.81,456.9 374.545,466.651 384.729,474.703 376,464.954 		"/>
		<polygon fill="#E2DDEE" points="367.303,475.194 376.137,466.618 383.239,456.417 374.413,465 		"/>
	</g>
	<g>
		<path fill="#E2DDEE" d="M503.02,257.871c2.228,2.092,2.505,5.577,0.631,7.787c-1.866,2.22-5.196,2.312-7.426,0.212
			c-2.229-2.092-2.507-5.581-0.632-7.788C497.463,255.866,500.795,255.766,503.02,257.871z"/>
		<polygon fill="#E2DDEE" points="490.165,252.973 498.9,262.728 509.081,270.776 500.35,261.008 		"/>
		<polygon fill="#E2DDEE" points="491.656,271.262 500.483,262.676 507.591,252.488 498.768,261.063 		"/>
	</g>
</g>
<path id="Shadow" opacity="0.1" d="M511.946,260.8L375.6,125.29L154.253,401.071l110.743,110.743
	c16.284-0.59,32.748-2.733,49.214-6.579C430.728,478.022,509.886,375.214,511.946,260.8z"/>
<g id="Jupiter_1_">
	<path fill="#FDC66F" d="M433.041,262.951c-3.843,97.783-86.221,173.929-183.997,170.089
		c-97.776-3.839-173.93-86.215-170.086-183.997c3.836-97.777,86.22-173.928,183.994-170.084
		C360.728,82.799,436.879,165.176,433.041,262.951z"/>
	<path fill="#F9AE6B" d="M147.021,116.314c30.103,19.966,69.544,32.848,113.104,34.562c43.566,1.707,83.894-8.04,115.475-25.585
		c-29.82-27.308-69.083-44.622-112.647-46.331C219.385,77.247,178.887,91.427,147.021,116.314z"/>
	<path fill="#FAB470" d="M250.389,257.213c-74.964-2.943-139.194-16.681-168.521-34.023c-1.573,8.414-2.567,17.044-2.91,25.854
		c-3.844,97.782,72.31,180.158,170.086,183.997c97.776,3.84,180.154-72.306,183.997-170.089c0.439-11.132-0.18-22.061-1.726-32.705
		C407.496,249.017,335.259,260.546,250.389,257.213z"/>
	<path fill="#FCC99F" d="M185.966,373.767c-44.234-19.256-79.823-49.05-103.866-83.665c15.387,78.795,83.235,139.65,166.944,142.938
		c59.71,2.346,113.667-25.139,147.519-69.158C341.146,400.231,260.93,406.402,185.966,373.767z"/>
	<path fill="#DC9862" d="M425.031,202.737c0,0-120.215,42.552-177.347,43.365c63.944,8.354,160.077-16.895,181.629-27.075
		C427.475,210.87,425.031,202.737,425.031,202.737z"/>
	
		<ellipse transform="matrix(0.9294 0.3691 -0.3691 0.9294 111.7088 -36.5991)" fill="#EA9E65" cx="151.522" cy="273.7" rx="34.6" ry="29.909"/>
	<path opacity="0.1" d="M162.56,245.905c-16.984-6.745-35.404-0.88-42.313,13.071c8.893-6.666,21.982-8.419,34.314-3.521
		c17.76,7.052,27.216,25.214,21.12,40.566c-0.266,0.67-0.567,1.317-0.883,1.954c3.914-2.933,7.018-6.813,8.881-11.505
		C189.775,271.12,180.32,252.958,162.56,245.905z"/>
	
		<ellipse transform="matrix(0.9996 -0.0284 0.0284 0.9996 -8.4026 6.6747)" fill="#EA9E65" cx="230.994" cy="299.415" rx="16.693" ry="14.43"/>
	
		<ellipse transform="matrix(0.9996 -0.0284 0.0284 0.9996 -8.3798 8.293)" fill="#EA9E65" cx="288.023" cy="299.415" rx="16.692" ry="14.43"/>
	<path fill="#FCC99F" d="M117.423,145.594c-11.356,14.23-20.58,30.265-27.158,47.642c105.684,59.238,274.487,29.326,336.487,15.354
		c-5.981-21.565-15.951-41.527-29.099-59.007C285.682,188.065,166.228,160.311,117.423,145.594z"/>
	<path opacity="0.1" d="M289.751,82.042c40.739,35.097,65.612,87.115,63.365,144.218c-3.954,100.738-90.778,179.117-193.922,175.069
		c-1.655-0.066-3.301-0.15-4.941-0.258c26.934,18.927,59.448,30.581,94.792,31.969c97.776,3.84,180.154-72.306,183.997-170.089
		C436.521,174.313,374.26,98.331,289.751,82.042z"/>
</g>
</svg>
